<svg width="23" height="23" viewBox="0 0 23 23" fill="none" xmlns="http://www.w3.org/2000/svg">
<path d="M9.72366 13.4425C11.0573 14.7954 12.671 15.84 14.4514 16.5028L16.8601 14.5861C16.9315 14.5369 17.0161 14.5106 17.1028 14.5106C17.1895 14.5106 17.2742 14.5369 17.3456 14.5861L21.8178 17.4675C21.9876 17.5696 22.1313 17.7097 22.2376 17.8769C22.344 18.044 22.4099 18.2336 22.4304 18.4307C22.4508 18.6277 22.4252 18.8268 22.3555 19.0123C22.2857 19.1977 22.1739 19.3644 22.0287 19.4991L19.9331 21.5691C19.633 21.8657 19.2642 22.0833 18.8595 22.2026C18.4548 22.3219 18.0269 22.3391 17.6139 22.2528C13.4945 21.402 9.69755 19.4094 6.65699 16.5028C3.68391 13.5672 1.62656 9.83202 0.734495 5.75026C0.646371 5.3437 0.664763 4.92126 0.787891 4.5239C0.911018 4.12653 1.1347 3.76771 1.43727 3.4822L3.6095 1.38665C3.74392 1.24851 3.90785 1.14258 4.08901 1.07677C4.27018 1.01097 4.46388 0.987003 4.65562 1.00667C4.84736 1.02633 5.03216 1.08912 5.1962 1.19033C5.36023 1.29154 5.49925 1.42855 5.60283 1.59109L8.58005 6.00582C8.6314 6.07514 8.65912 6.15913 8.65912 6.2454C8.65912 6.33167 8.6314 6.41566 8.58005 6.48498L6.61866 8.84248C7.29945 10.5872 8.3601 12.1586 9.72366 13.4425Z" fill="#C2C8D1"/>
</svg>
