<svg width="37" height="37" viewBox="0 0 37 37" fill="none" xmlns="http://www.w3.org/2000/svg">
<path d="M18.5 0C8.28273 0 0 8.28273 0 18.5C0 28.7173 8.28273 37 18.5 37C28.7173 37 37 28.7173 37 18.5C37 8.28273 28.7173 0 18.5 0ZM18.5 6.26678C23.5932 6.26678 27.7229 10.3965 27.7229 15.4897C27.7229 17.0325 27.3001 19.0692 26.4311 20.2208L18.5 30.7332L10.5688 20.2208C9.61211 18.9529 9.27707 17.193 9.27707 15.4897C9.2771 10.3965 13.4068 6.26678 18.5 6.26678ZM18.5 11.6099C16.357 11.6099 14.6202 13.3467 14.6202 15.4897C14.6202 17.6327 16.357 19.3694 18.5 19.3694C20.643 19.3694 22.3798 17.6327 22.3798 15.4897C22.3798 13.3467 20.643 11.6099 18.5 11.6099Z" fill="#5A8AFF"/>
</svg>
