<svg width="50" height="50" viewBox="0 0 50 50" fill="none" xmlns="http://www.w3.org/2000/svg">
<rect width="50" height="50" rx="3" fill="#5A8AFF"/>
<g clip-path="url(#clip0_110_1767)">
<path d="M16.2039 21.1329C16.2039 26.005 20.019 29.9719 24.7126 29.9719C29.4062 29.9719 33.2214 26.005 33.2214 21.1329C33.2214 16.2607 29.4062 12.2938 24.7126 12.2938C20.019 12.2938 16.2039 16.2607 16.2039 21.1329ZM24.7126 13.5657C28.7256 13.5657 31.9935 16.9585 31.9935 21.1329C31.9935 25.3073 28.7256 28.7 24.7126 28.7C20.6997 28.7 17.4317 25.3073 17.4317 21.1329C17.4317 16.9585 20.6997 13.5657 24.7126 13.5657Z" fill="white" stroke="white" stroke-width="0.1"/>
<path d="M23.7531 19.435L23.753 19.435C23.664 19.6198 23.4935 19.7489 23.2952 19.7799L21.1831 20.1103L22.7062 21.6695C22.7062 21.6695 22.7062 21.6695 22.7062 21.6695C22.8484 21.8149 22.9131 22.0225 22.8804 22.2259M23.7531 19.435L22.8311 22.218M23.7531 19.435L24.707 17.4524M23.7531 19.435L24.707 17.4524M22.8804 22.2259L22.8311 22.218M22.8804 22.2259L22.8804 22.2259L22.8311 22.218M22.8804 22.2259L22.5303 24.415M22.8311 22.218L22.4749 24.4449L22.5303 24.415M22.5303 24.415L24.4233 23.3937L24.4233 23.3937C24.5121 23.3458 24.6095 23.3218 24.707 23.3218C24.8044 23.3218 24.9018 23.3458 24.9905 23.3938M22.5303 24.415L22.5204 24.4772L24.9905 23.3938M24.9905 23.3938L26.8834 24.415L26.5333 22.2259L26.5333 22.2259C26.5009 22.0225 26.5655 21.8149 26.7074 21.6695L26.7075 21.6695L28.2308 20.1103L26.1187 19.7799C25.9204 19.7489 25.7499 19.6198 25.6609 19.435L25.6609 19.435L24.707 17.4524M24.9905 23.3938L24.707 17.4524M19.4488 20.1232L19.4488 20.1232L21.6171 22.343L21.1181 25.4632C21.0803 25.7 21.1742 25.9392 21.3623 26.0812C21.5505 26.2234 21.8004 26.2427 22.0073 26.1313L22.0074 26.1313L24.707 24.6747L27.4063 26.1313L27.4063 26.1313C27.6116 26.2419 27.8615 26.2246 28.0514 26.0812C28.2395 25.9392 28.3334 25.7 28.2956 25.4632L27.7966 22.343L29.9649 20.1232C30.1302 19.9542 30.1889 19.7033 30.1174 19.4748L30.1174 19.4748C30.0459 19.2464 29.8558 19.0784 29.625 19.0421L29.6249 19.0421L26.6174 18.5717L25.2562 15.7433C25.2562 15.7433 25.2562 15.7433 25.2562 15.7433C25.1529 15.5282 24.9404 15.3911 24.707 15.3911C24.4733 15.3911 24.2611 15.5282 24.1575 15.7432L24.1575 15.7433L22.7963 18.5717L19.7888 19.0421C19.7888 19.0421 19.7888 19.0421 19.7888 19.0421C19.5579 19.0781 19.3678 19.2464 19.2963 19.4748L19.2963 19.4748C19.2248 19.7033 19.2837 19.9542 19.4488 20.1232ZM26.8933 24.4772L24.9667 23.4377L26.8933 24.4772ZM26.5826 22.218L26.9388 24.4449L28.2914 20.1198L26.7432 21.7044C26.6126 21.8383 26.5527 22.0299 26.5826 22.218Z" fill="white" stroke="white" stroke-width="0.1"/>
<path d="M24.7163 11.2219C25.0571 11.2219 25.3302 10.9354 25.3302 10.586C25.3302 10.2366 25.0571 9.95006 24.7163 9.95006C24.3754 9.95006 24.1023 10.2366 24.1023 10.586C24.1023 10.9354 24.3754 11.2219 24.7163 11.2219Z" fill="white" stroke="white" stroke-width="0.1"/>
<path d="M29.6477 39.2829C29.5739 39.4988 29.3855 39.6503 29.1657 39.6707C29.1492 39.672 29.1324 39.6727 29.1159 39.6727C28.9146 39.6727 28.7269 39.5608 28.626 39.3766M29.6477 39.2829L14.2977 35.2821C14.1885 35.4824 14.2021 35.7305 14.3325 35.9163M29.6477 39.2829L31.0035 35.3125M29.6477 39.2829L34.8617 36.145M28.626 39.3766L24.9109 32.5896L24.8824 32.6417M28.626 39.3766L28.5822 39.4006L24.8824 32.6417M28.626 39.3766L28.5822 39.4006C28.6916 39.6004 28.8958 39.7227 29.1159 39.7227C29.1338 39.7227 29.1519 39.722 29.1698 39.7205L29.1703 39.7205C29.4106 39.6982 29.6151 39.5328 29.695 39.2991L29.695 39.2991L31.0364 35.3708M24.8824 32.6417L24.8539 32.5896L21.1385 39.3766M24.8824 32.6417L21.1824 39.4006L21.1385 39.3766M21.1385 39.3766C21.0295 39.5759 20.8186 39.691 20.5988 39.6707C20.379 39.6503 20.1906 39.499 20.1171 39.2829M21.1385 39.3766L21.1824 39.4006M20.1171 39.2829L18.761 35.3125M20.1171 39.2829L20.0697 39.2991M20.1171 39.2829L20.0697 39.2991M18.761 35.3125L14.9028 36.145M18.761 35.3125L18.7137 35.3287L18.7281 35.3708M18.761 35.3125L18.7716 35.3614L18.7281 35.3708M14.9028 36.145C14.6858 36.1919 14.4629 36.1024 14.3325 35.9163M14.9028 36.145L14.9134 36.1939M14.9028 36.145L14.9134 36.1939L18.7281 35.3708M14.3325 35.9163L14.2916 35.945M14.3325 35.9163L14.2916 35.945C14.2916 35.945 14.2916 35.945 14.2916 35.945M14.2916 35.945C14.1502 35.7435 14.1355 35.475 14.2538 35.2582L14.2538 35.2581L17.6327 29.0708C15.3928 26.9517 14.118 23.9694 14.118 20.8058C14.118 15.691 17.4451 11.2343 22.2119 9.97005C22.5425 9.88235 22.8758 10.0901 22.9592 10.4292L22.9592 10.4292C23.0422 10.7677 22.846 11.1147 22.5164 11.2022L22.5164 11.2022C18.2956 12.3217 15.3458 16.27 15.3458 20.8058C15.3458 26.3226 19.6565 30.7167 24.8824 30.7167C30.1045 30.7167 34.4189 26.3262 34.4189 20.8058C34.4189 16.27 31.469 12.3217 27.2481 11.2022L27.2481 11.2022C26.9185 11.1147 26.7223 10.7677 26.8055 10.4292C26.8889 10.0901 27.2222 9.88235 27.5529 9.97005C32.3194 11.2343 35.6465 15.691 35.6465 20.8058C35.6465 23.9694 34.3717 26.9517 32.1318 29.0708L35.5107 35.2581L35.5107 35.2582C35.629 35.475 35.6146 35.7435 35.4729 35.945M14.2916 35.945C14.4332 36.147 14.6761 36.2452 14.9134 36.1939M14.9134 36.1939L20.0697 39.2991M14.9134 36.1939L21.1824 39.4006M18.7281 35.3708L20.0697 39.2991M20.0697 39.2991C20.0697 39.2991 20.0697 39.2991 20.0697 39.2991M20.0697 39.2991L21.1824 39.4006M20.0697 39.2991C20.1494 39.5331 20.354 39.6982 20.5942 39.7205C20.8347 39.7427 21.0641 39.6167 21.1824 39.4006M31.0364 35.3708L34.8511 36.1939L34.8512 36.1939C35.0882 36.2449 35.3313 36.1468 35.4729 35.945M31.0364 35.3708L30.9929 35.3614L31.0035 35.3125M31.0364 35.3708L31.0508 35.3287L31.0035 35.3125M35.4729 35.945C35.4729 35.9451 35.4729 35.9451 35.4729 35.9451L35.432 35.9163M35.4729 35.945L35.432 35.9163M35.432 35.9163C35.3016 36.1022 35.0784 36.1917 34.8617 36.145M35.432 35.9163C35.5626 35.7305 35.5761 35.4824 35.4668 35.2821L34.8617 36.145M34.8617 36.145L31.0035 35.3125M19.0029 34.0124L19.0135 34.0612L19.0029 34.0124L15.9899 34.6625L18.5986 29.8854C20.1432 31.0391 21.9629 31.7482 23.8564 31.9374L20.7784 37.5604L19.7069 34.423C19.6048 34.1242 19.305 33.9472 19.0029 34.0124ZM30.7616 34.0124C30.4597 33.9472 30.1597 34.1242 30.0577 34.423L28.9863 37.5604L25.9081 31.9374C27.8018 31.7482 29.6213 31.0391 31.1662 29.8854L33.7748 34.6625L30.7616 34.0124Z" fill="white" stroke="white" stroke-width="0.1"/>
</g>
<defs>
<clipPath id="clip0_110_1767">
<rect width="30" height="30" fill="white" transform="translate(10 10.0001)"/>
</clipPath>
</defs>
</svg>
