<svg width="50" height="50" viewBox="0 0 50 50" fill="none" xmlns="http://www.w3.org/2000/svg">
<rect width="50" height="50" rx="3" fill="#5A8AFF"/>
<g clip-path="url(#clip0_110_1776)">
<path d="M37.398 15.663L37.3981 15.6631C37.4631 15.6806 37.5 15.7353 37.5 15.7889V22.2369C37.5 28.7036 34.4733 32.9767 31.9286 35.4301L31.9286 35.4301C30.5579 36.7517 29.0736 37.778 27.7915 38.4718C27.1506 38.8186 26.5659 39.0792 26.0768 39.2519C25.5768 39.4284 25.2126 39.5 25.0002 39.5C24.7877 39.5 24.4235 39.4284 23.9235 39.2519C23.4344 39.0792 22.8497 38.8186 22.2087 38.4718C20.9266 37.778 19.4423 36.7517 18.0716 35.4301L18.0716 35.4301C15.5268 32.9766 12.5 28.7035 12.5 22.2369V15.7889C12.5 15.7353 12.537 15.6806 12.6019 15.6631L12.602 15.663C16.9585 14.4885 20.9905 12.8057 24.9253 10.52L24.9254 10.5199C24.9712 10.4933 25.0291 10.4933 25.075 10.5199C28.9005 12.7425 33.1606 14.5205 37.398 15.663ZM18.2751 35.2484L18.6222 34.8884L18.2751 35.2484C19.694 36.6164 21.1623 37.6047 22.3643 38.2528C22.9653 38.5769 23.5042 38.8183 23.9419 38.9801C24.3572 39.1337 24.7388 39.2377 25.0002 39.2377C25.2616 39.2377 25.6432 39.1337 26.0585 38.9801C26.4961 38.8183 27.035 38.5769 27.636 38.2528C28.838 37.6047 30.3062 36.6164 31.725 35.2484C34.2279 32.8353 37.2174 28.6119 37.2174 22.2369V16.2677V15.8886L36.8524 15.7863C32.8654 14.6682 28.8698 12.9957 25.2482 10.928L25.0001 10.7864L24.7521 10.9282C21.0369 13.0526 17.2333 14.645 13.1481 15.7864L12.7827 15.8885V16.268V22.2369C12.7827 28.6119 15.7723 32.8352 18.2751 35.2484Z" fill="white" stroke="white"/>
<path d="M18.8511 16.3832L18.8511 16.3831C18.8252 16.3183 18.7435 16.277 18.6642 16.3077C17.5077 16.7561 16.3207 17.1688 15.136 17.5345L18.8511 16.3832ZM18.8511 16.3832C18.8754 16.4439 18.8483 16.5203 18.7731 16.5495L18.7729 16.5495C17.7548 16.9443 16.713 17.3116 15.67 17.6437L15.3217 17.7546M18.8511 16.3832L15.3217 17.7546M15.3217 17.7546V18.1201M15.3217 17.7546V18.1201M15.3217 18.1201V20.0959C15.3217 20.1606 15.266 20.2269 15.1804 20.2269C15.0947 20.2269 15.0391 20.1606 15.0391 20.0959V17.6589C15.0391 17.6071 15.0736 17.5539 15.1359 17.5346L15.3217 18.1201Z" fill="white" stroke="white"/>
<path d="M20.5941 15.8042L20.5941 15.8042L20.6044 15.7998C20.6762 15.7688 20.7015 15.6934 20.6741 15.6318L20.5941 15.8042ZM20.5941 15.8042L20.5933 15.8045M20.5941 15.8042L20.5933 15.8045M20.5933 15.8045C20.5732 15.8132 20.5531 15.817 20.5334 15.817C20.4718 15.817 20.422 15.7818 20.4017 15.7361L20.4017 15.736C20.3743 15.6744 20.3995 15.599 20.4715 15.5681L20.4797 15.5646L20.4798 15.5646M20.5933 15.8045L20.4798 15.5646M20.4798 15.5646L20.4825 15.5634M20.4798 15.5646L20.4825 15.5634M20.4825 15.5634C20.5615 15.5293 20.6459 15.5687 20.674 15.6317L20.4825 15.5634Z" fill="white" stroke="white"/>
<path d="M28.3728 34.8072C29.0424 34.3049 29.6803 33.7464 30.269 33.1472L30.269 33.1472C30.9849 32.4184 31.6251 31.6317 32.1717 30.8085C32.2129 30.7465 32.3037 30.7248 32.3725 30.7691L32.3726 30.7691C32.4371 30.8106 32.4502 30.8887 32.4126 30.9454L32.4125 30.9455C31.858 31.7809 31.2071 32.5813 30.4777 33.3237L30.4777 33.3237C29.8794 33.9327 29.2308 34.5004 28.5504 35.011L28.5502 35.0111C28.5243 35.0306 28.494 35.0402 28.4621 35.0402C28.4152 35.0402 28.3734 35.0197 28.3467 34.9853L27.9516 35.2917L28.347 34.9856C28.3043 34.9306 28.313 34.8521 28.3728 34.8072ZM28.3728 34.8072L28.0727 34.4073M28.3728 34.8072C28.3728 34.8072 28.3728 34.8072 28.3728 34.8072L28.0727 34.4073M28.0727 34.4073C27.7912 34.6186 27.737 35.0145 27.9516 35.2917C28.0779 35.4546 28.2689 35.5402 28.4621 35.5402C28.5977 35.5402 28.7344 35.4981 28.8505 35.4109L32.643 30.3486C32.3467 30.1579 31.9492 30.2399 31.7553 30.5317C31.2268 31.3276 30.6068 32.0898 29.9123 32.7968C29.3411 33.3782 28.7222 33.9201 28.0727 34.4073Z" fill="white" stroke="white"/>
<path d="M26.7943 35.8527L26.7943 35.8527C26.7265 35.8913 26.7099 35.9693 26.7439 36.027L26.7439 36.027C26.768 36.0681 26.8143 36.0956 26.8686 36.0956C26.8934 36.0956 26.9178 36.0895 26.9405 36.0767L26.9814 36.0531L26.982 36.0527L26.982 36.0527C27.0493 36.0139 27.0657 35.9361 27.0313 35.8782L26.7943 35.8527ZM26.7943 35.8527L26.7974 35.8509M26.7943 35.8527L26.7974 35.8509M26.7974 35.8509L26.8335 35.83L26.7974 35.8509Z" fill="white" stroke="white"/>
<path d="M20.2786 24.0684L20.2785 24.0683C19.9792 23.7738 19.5818 23.6112 19.1548 23.6112C18.7277 23.6112 18.3302 23.7738 18.0307 24.0685C17.4168 24.6727 17.4169 25.6536 18.0307 26.2578L20.2786 24.0684ZM20.2786 24.0684L22.5908 26.3435L22.9415 26.6886L23.2922 26.3435L29.7228 20.0157C30.0223 19.7211 30.4197 19.5585 30.8468 19.5585C31.274 19.5585 31.6714 19.7211 31.9707 20.0157L31.9708 20.0157C32.5846 20.6196 32.5848 21.6004 31.9709 22.2049C31.9708 22.2049 31.9708 22.2049 31.9708 22.205L24.0655 29.9839C23.766 30.2785 23.3686 30.4411 22.9415 30.4411C22.5144 30.4411 22.117 30.2785 21.8176 29.984C21.8176 29.984 21.8176 29.984 21.8176 29.9839L18.0308 26.2578L20.2786 24.0684ZM31.7653 20.1954L31.7652 20.1953C31.5191 19.9533 31.1913 19.8206 30.8468 19.8206C30.5026 19.8206 30.1745 19.9533 29.9284 20.1954L23.0442 26.9695L23.0441 26.9696C23.0183 26.995 22.9816 27.0107 22.9415 27.0107C22.9016 27.0107 22.8648 26.9951 22.8387 26.9695C22.8386 26.9695 22.8385 26.9694 22.8385 26.9694L20.073 24.2481L20.073 24.2481C19.827 24.006 19.4991 23.8733 19.1547 23.8733C18.8102 23.8733 18.4822 24.0062 18.2362 24.2481L18.2362 24.2482C17.7241 24.7521 17.7242 25.5743 18.2363 26.0781L18.2363 26.0781L22.0231 29.8042L22.0231 29.8043C22.2692 30.0464 22.5972 30.179 22.9415 30.179C23.2858 30.179 23.6138 30.0464 23.8599 29.8042L31.7652 22.0253C32.2772 21.5215 32.2773 20.6993 31.7653 20.1954Z" fill="white" stroke="white"/>
</g>
<defs>
<clipPath id="clip0_110_1776">
<rect width="30" height="30" fill="white" transform="translate(10 9.99994)"/>
</clipPath>
</defs>
</svg>
