<svg width="50" height="50" viewBox="0 0 50 50" fill="none" xmlns="http://www.w3.org/2000/svg">
<path d="M35.7311 19.0806C35.7311 13.06 30.9268 8.17945 25.0003 8.17945C19.0739 8.17945 14.2695 13.06 14.2695 19.0806V35.4323C14.2695 41.4528 19.0739 46.3334 25.0003 46.3334C30.9268 46.3334 35.7311 41.4528 35.7311 35.4323V19.0806Z" fill="#5A8AFF"/>
<path d="M42.3855 12.4519L34.9336 17.4199" stroke="#5A8AFF" stroke-width="2" stroke-linecap="round" stroke-linejoin="round"/>
<path d="M7.60938 12.4519L15.0613 17.4199" stroke="#5A8AFF" stroke-width="2" stroke-linecap="round" stroke-linejoin="round"/>
<path d="M42.3855 42.2598L34.9336 37.2918" stroke="#5A8AFF" stroke-width="2" stroke-linecap="round" stroke-linejoin="round"/>
<path d="M7.60938 42.2598L15.0613 37.2918" stroke="#5A8AFF" stroke-width="2" stroke-linecap="round" stroke-linejoin="round"/>
<path d="M44.8695 27.3558H34.9336" stroke="#5A8AFF" stroke-width="2" stroke-linecap="round" stroke-linejoin="round"/>
<path d="M5.125 27.3558H15.0609" stroke="#5A8AFF" stroke-width="2" stroke-linecap="round" stroke-linejoin="round"/>
<path d="M20.0273 5L22.5113 9.96796" stroke="#5A8AFF" stroke-width="2" stroke-linecap="round" stroke-linejoin="round"/>
<path d="M29.9644 5L27.4805 9.96796" stroke="#5A8AFF" stroke-width="2" stroke-linecap="round" stroke-linejoin="round"/>
</svg>
