<svg width="60" height="60" viewBox="0 0 60 60" fill="none" xmlns="http://www.w3.org/2000/svg">
<circle cx="30" cy="30" r="30" fill="#FEA43A"/>
<path d="M15 29C14.4477 29 14 29.4477 14 30C14 30.5523 14.4477 31 15 31V29ZM45.7071 30.7071C46.0976 30.3166 46.0976 29.6834 45.7071 29.2929L39.3431 22.9289C38.9526 22.5384 38.3195 22.5384 37.9289 22.9289C37.5384 23.3195 37.5384 23.9526 37.9289 24.3431L43.5858 30L37.9289 35.6569C37.5384 36.0474 37.5384 36.6805 37.9289 37.0711C38.3195 37.4616 38.9526 37.4616 39.3431 37.0711L45.7071 30.7071ZM15 31H45V29H15V31Z" fill="white"/>
</svg>
